<?xml version="1.0" standalone="no"?>
<!DOCTYPE svg PUBLIC "-//W3C//DTD SVG 20010904//EN"
 "http://www.w3.org/TR/2001/REC-SVG-20010904/DTD/svg10.dtd">
<svg version="1.0" xmlns="http://www.w3.org/2000/svg"
 width="512.000000pt" height="512.000000pt" viewBox="0 0 512.000000 512.000000"
 preserveAspectRatio="xMidYMid meet">

<g transform="translate(0.000000,512.000000) scale(0.100000,-0.100000)"
fill="#ffffff" stroke="none">
<path d="M1365 4672 c-120 -42 -205 -117 -258 -230 l-32 -67 -3 -343 -3 -343
30 -29 29 -30 152 0 152 0 29 29 29 29 0 242 c0 200 3 248 16 275 33 70 -81
65 1583 65 1619 0 1547 2 1585 -51 15 -21 16 -163 16 -1664 0 -1501 -1 -1643
-16 -1664 -38 -53 34 -51 -1585 -51 -1664 0 -1550 -5 -1583 65 -13 27 -16 75
-16 275 l0 242 -29 29 -29 29 -152 0 -152 0 -29 -30 -30 -29 3 -344 3 -343 37
-75 c46 -93 112 -158 206 -202 l67 -32 1710 0 1710 0 70 34 c76 38 148 103
188 171 60 103 57 -1 57 1925 0 1926 3 1822 -57 1925 -40 68 -112 133 -188
171 l-70 34 -1695 2 c-1588 2 -1698 1 -1745 -15z"/>
<path d="M1925 3589 c-36 -10 -202 -172 -221 -215 -26 -62 -12 -81 258 -351
l253 -253 -1067 0 c-746 0 -1074 -3 -1091 -11 -47 -21 -57 -56 -57 -199 0
-143 10 -178 57 -199 17 -8 345 -11 1091 -11 l1067 0 -252 -252 c-139 -139
-257 -266 -263 -282 -18 -48 3 -84 103 -184 92 -92 126 -112 177 -104 17 2
176 154 512 490 523 524 516 516 484 584 -24 49 -965 984 -996 990 -14 2 -39
1 -55 -3z"/>
</g>
</svg>
